<?xml version="1.0" standalone="no"?>
<!DOCTYPE svg PUBLIC "-//W3C//DTD SVG 20010904//EN"
 "http://www.w3.org/TR/2001/REC-SVG-20010904/DTD/svg10.dtd">
<svg version="1.0" xmlns="http://www.w3.org/2000/svg"
 width="1600.000000pt" height="1600.000000pt" viewBox="0 0 1600.000000 1600.000000"
 preserveAspectRatio="xMidYMid meet">

<g transform="translate(0.000000,1600.000000) scale(0.100000,-0.100000)"
fill="#000000" stroke="none">
<path d="M10613 12045 c-206 -65 -970 -107 -2263 -127 l-775 -11 -160 31
c-307 59 -383 66 -710 66 -261 0 -317 -3 -435 -22 -228 -37 -295 -54 -490
-119 -267 -90 -503 -214 -727 -381 -153 -115 -193 -150 -339 -298 -224 -226
-444 -536 -559 -789 -41 -90 -96 -158 -192 -241 -119 -101 -372 -265 -547
-354 -65 -33 -181 -223 -231 -379 -34 -104 -38 -264 -11 -381 24 -99 91 -239
157 -324 l54 -69 205 6 c278 8 578 37 848 82 217 36 302 54 557 123 11 3 45
24 75 47 30 23 73 51 95 62 272 136 788 137 1315 3 71 -18 81 -19 127 -5 134
40 288 181 392 360 l38 65 6 -218 c22 -825 308 -1502 792 -1873 314 -241 736
-360 1224 -346 108 3 206 9 218 14 21 8 21 8 -13 93 -177 436 -299 885 -278
1028 7 50 27 92 46 92 18 0 174 -137 274 -243 397 -418 683 -892 835 -1387 48
-155 116 -439 106 -445 -1 -1 -52 -14 -113 -28 -346 -85 -701 -239 -1004 -436
-178 -116 -289 -208 -465 -385 -199 -200 -338 -388 -463 -626 -81 -155 -193
-432 -180 -446 3 -2 49 18 104 44 414 204 985 403 1334 466 269 48 445 57 608
31 205 -33 293 -82 532 -295 436 -387 775 -881 916 -1332 10 -32 22 -58 27
-58 4 0 29 23 55 51 148 162 262 401 319 669 25 120 25 493 0 630 -74 396
-249 808 -519 1213 -32 49 -58 95 -58 103 0 8 11 50 25 92 62 193 126 523 157
802 18 167 18 774 0 930 -19 162 -49 355 -78 495 -152 741 -516 1491 -1022
2108 -35 43 -62 80 -60 83 3 2 47 -9 99 -25 160 -50 214 -61 300 -61 92 0 154
21 225 77 43 34 114 126 144 188 85 175 415 334 935 451 250 56 381 78 696
118 101 13 109 15 138 47 89 97 115 224 67 324 -132 275 -801 510 -1921 675
-313 46 -380 51 -432 35z m-3738 -410 c260 -21 427 -48 705 -115 69 -16 157
-34 195 -40 39 -5 117 -17 175 -25 121 -18 212 -28 504 -56 226 -21 191 -23
446 21 205 35 530 74 850 101 223 19 858 16 1050 -5 371 -41 638 -102 835
-191 l60 -27 -75 -19 c-237 -56 -508 -261 -781 -589 -48 -58 -173 -226 -202
-273 -20 -30 -6 -30 -157 -6 -215 35 -782 197 -1229 353 -73 25 -138 46 -143
46 -5 0 21 -21 59 -46 584 -398 997 -1008 1182 -1744 155 -612 165 -1342 29
-2015 -20 -100 -27 -120 -35 -99 -8 24 -133 236 -188 321 -106 163 -305 427
-400 533 -142 157 -264 286 -326 345 -506 483 -1058 865 -1729 1199 -296 147
-653 296 -810 339 -360 97 -985 87 -1668 -28 -212 -35 -196 -32 -432 -80 -134
-28 -163 -34 -395 -90 -330 -79 -681 -178 -1062 -299 -22 -7 -23 -5 -23 46 0
76 27 143 83 204 67 74 116 107 317 219 351 196 501 306 644 477 79 93 109
143 174 288 115 258 520 719 810 924 262 184 611 296 1027 331 205 17 300 17
510 0z"/>
<path d="M6510 11369 c-509 -42 -952 -261 -1365 -674 -143 -142 -257 -270
-225 -250 8 5 42 28 75 51 56 39 148 95 257 157 26 15 101 54 167 87 689 342
1392 467 2001 355 176 -32 337 -79 483 -141 75 -31 80 -32 55 -10 -76 68 -349
215 -518 279 -214 81 -384 121 -610 142 -167 16 -178 16 -320 4z"/>
<path d="M5885 6978 c-22 -11 -49 -28 -59 -37 -60 -51 -80 -216 -36 -305 12
-26 36 -57 54 -70 63 -49 166 -57 238 -20 28 14 32 14 40 1 4 -8 16 -14 26
-12 9 2 29 4 45 4 l27 1 0 120 0 120 -100 0 -100 0 0 -50 c0 -49 1 -50 30 -50
21 0 28 -4 24 -14 -8 -22 -59 -39 -94 -31 -53 12 -78 80 -61 169 10 56 25 73
67 82 25 5 38 0 66 -25 32 -27 43 -31 97 -31 55 0 61 2 61 20 0 46 -45 103
-107 134 -48 24 -167 21 -218 -6z"/>
<path d="M7613 6980 c-77 -34 -105 -119 -63 -188 22 -36 75 -64 154 -82 84
-19 110 -46 67 -70 -31 -16 -57 -12 -89 15 -25 21 -40 25 -96 25 -71 0 -74 -2
-52 -54 47 -112 255 -142 355 -51 34 32 36 36 36 100 0 64 -2 68 -34 95 -19
16 -62 36 -100 46 -72 19 -121 40 -121 52 0 34 67 42 95 12 15 -16 31 -20 87
-20 37 0 68 3 68 7 0 4 -9 26 -20 49 -16 31 -32 48 -65 63 -59 28 -163 28
-222 1z"/>
<path d="M3360 6766 l0 -224 43 -3 c23 -2 54 -3 70 -1 27 3 27 4 27 78 l0 74
49 0 c61 0 74 -14 79 -91 4 -49 8 -59 23 -60 115 -4 124 -2 122 22 -8 109 -16
143 -40 167 l-24 24 25 27 c22 23 26 36 26 85 0 51 -3 61 -30 86 -38 35 -64
40 -231 40 l-139 0 0 -224z m264 92 c20 -33 -4 -53 -68 -56 l-56 -3 0 41 0 41
56 -3 c41 -2 60 -8 68 -20z"/>
<path d="M3840 6765 l0 -224 169 -3 c92 -2 176 -2 185 0 12 3 16 15 16 53 l0
49 -110 0 -110 0 0 40 0 40 90 0 90 0 0 50 0 50 -90 0 -90 0 0 30 0 30 105 0
105 0 0 55 0 55 -180 0 -180 0 0 -225z"/>
<path d="M4282 6763 l3 -227 65 1 65 1 5 123 c4 109 7 121 18 99 7 -14 30 -54
52 -90 22 -36 48 -80 57 -97 14 -27 23 -33 52 -34 20 -1 50 -2 66 -4 17 -1 35
0 40 2 6 2 10 87 10 228 l0 225 -72 0 -73 0 0 -122 0 -122 -72 122 -72 122
-73 0 -73 0 2 -227z"/>
<path d="M4876 6883 c-21 -60 -56 -159 -78 -221 -22 -62 -38 -116 -35 -119 8
-8 123 -7 136 1 6 4 11 16 11 27 0 17 7 19 75 19 71 0 75 -1 81 -25 3 -14 9
-25 13 -26 34 -4 141 -3 141 2 0 3 -23 70 -51 150 -28 79 -63 179 -77 222
l-26 77 -76 0 -76 0 -38 -107z m138 -118 c9 -35 16 -67 16 -70 0 -3 -20 -5
-45 -5 -42 0 -44 1 -36 23 5 12 15 43 21 70 7 26 16 47 20 47 4 0 15 -29 24
-65z"/>
<path d="M5262 6764 l3 -226 65 -1 65 -1 3 117 c1 64 6 117 10 117 4 0 23 -28
42 -62 54 -100 100 -168 113 -169 7 0 39 -1 72 -1 l60 0 3 226 2 226 -75 0
-75 0 0 -122 0 -123 -47 80 c-25 44 -57 99 -70 123 l-25 42 -74 0 -74 0 2
-226z"/>
<path d="M6512 6763 l3 -227 67 0 68 -1 0 125 0 125 43 -75 c24 -41 56 -96 73
-122 30 -50 31 -50 129 -50 47 0 45 -12 45 227 l0 225 -70 0 -70 0 0 -127 0
-128 -28 50 c-16 28 -47 81 -70 119 -23 37 -42 72 -42 77 0 5 -34 9 -75 9
l-75 0 2 -227z"/>
<path d="M7030 6821 c0 -175 4 -200 38 -238 62 -72 256 -81 333 -15 52 43 59
73 59 257 l0 165 -75 0 -75 0 0 -159 c0 -178 -4 -191 -64 -191 -63 0 -65 8
-68 185 l-3 160 -72 3 -73 3 0 -170z"/>
<path d="M8076 6883 c-21 -60 -53 -151 -72 -204 -51 -144 -51 -141 23 -141 69
0 83 5 83 33 0 17 7 19 75 19 71 0 75 -1 81 -25 3 -14 11 -25 18 -26 33 -3
128 0 132 3 2 3 -19 69 -47 149 -28 79 -63 179 -77 222 l-26 77 -76 0 -76 0
-38 -107z m138 -118 c9 -35 16 -67 16 -70 0 -3 -20 -5 -45 -5 -42 0 -44 1 -36
23 5 12 15 43 21 70 7 26 16 47 20 47 4 0 15 -29 24 -65z"/>
<path d="M3815 6469 c-146 -20 -277 -76 -365 -156 -64 -58 -131 -159 -166
-253 -26 -71 -28 -84 -28 -250 0 -164 1 -180 27 -255 66 -198 223 -342 432
-400 92 -25 312 -31 410 -11 152 31 257 86 338 176 72 80 113 172 132 298 l7
42 -211 0 -211 0 0 -25 c0 -39 -38 -111 -73 -138 -92 -69 -240 -62 -327 16
-56 50 -82 126 -88 254 -6 135 8 213 52 285 43 71 103 101 201 101 122 0 206
-59 221 -155 l7 -38 208 0 c240 0 222 -9 194 102 -47 181 -167 310 -347 374
-55 19 -226 44 -298 43 -30 -1 -82 -5 -115 -10z"/>
<path d="M4780 5800 l0 -640 515 0 515 0 0 170 0 170 -295 0 -295 0 0 470 0
470 -220 0 -220 0 0 -640z"/>
<path d="M5950 6000 c0 -284 4 -458 11 -492 52 -246 272 -378 634 -378 375 0
592 137 636 400 5 30 9 247 9 483 l0 427 -220 0 -219 0 -3 -444 c-3 -431 -4
-445 -24 -473 -58 -79 -246 -97 -329 -31 -54 42 -55 55 -55 519 l0 429 -220 0
-220 0 0 -440z"/>
<path d="M7499 6436 c-2 -2 -3 -291 -1 -641 l2 -637 418 5 c229 3 441 10 470
16 84 16 187 68 233 118 69 75 84 120 84 253 0 106 -2 118 -27 160 -33 57 -65
86 -122 114 l-46 22 49 36 c131 98 143 314 23 445 -16 18 -52 44 -81 58 -98
50 -152 55 -592 55 -223 0 -408 -2 -410 -4z m718 -306 c47 -30 58 -112 20
-155 -28 -34 -79 -44 -214 -45 l-103 0 0 111 0 111 138 -4 c94 -3 144 -8 159
-18z m-9 -441 c65 -15 92 -47 92 -108 0 -52 -21 -84 -68 -103 -15 -6 -91 -13
-169 -16 l-143 -5 0 122 0 121 121 0 c66 0 141 -5 167 -11z"/>
</g>
</svg>
